# xmcd CD database file
#
# Track frame offsets:
# 150
# 11968
# 33493
# 47401
# 62156
# 83271
# 95243
# 106289
# 127353
# 151223
# 184225
# 199895
# 222253
# 245805
#
#
# Disc length: 3564 seconds
#
# Submitted via: cddb-tool 0.4.7
#
# Revision: 0
# Processed by: cddbd v1.5.2PL0 Copyright (c) Steve Scherf et al.
#
DISCID=ca0dea0e
DTITLE=Beck - The Brixton Tape
DYEAR=1900
DGENRE=
TTITLE0=Thunder Peel
TTITLE1=Lord Only Knows
TTITLE2=Minus
TTITLE3=The New Pollution
TTITLE4=Looser
TTITLE5=Asshole
TTITLE6=Hollow Log
TTITLE7=One Foot in the Grave
TTITLE8=Pay No Mind
TTITLE9=Where It's At
TTITLE10=Devils Haircut
TTITLE11=Sissy Neck
TTITLE12=Beer Can
TTITLE13=Looser
EXTD=
EXTT0=
EXTT1=
EXTT2=
EXTT3=
EXTT4=
EXTT5=
EXTT6=
EXTT7=
EXTT8=
EXTT9=
EXTT10=
EXTT11=
EXTT12=
EXTT13=
PLAYORDER=
